<?xml version="1.0" standalone="no"?>
<!DOCTYPE svg PUBLIC "-//W3C//DTD SVG 20010904//EN"
 "http://www.w3.org/TR/2001/REC-SVG-20010904/DTD/svg10.dtd">
<svg version="1.0" xmlns="http://www.w3.org/2000/svg"
 width="700.000000pt" height="700.000000pt" viewBox="0 0 700.000000 700.000000"
 preserveAspectRatio="xMidYMid meet">
<metadata>
Created by potrace 1.14, written by Peter Selinger 2001-2017
</metadata>
<g transform="translate(0.000000,700.000000) scale(0.100000,-0.100000)"
fill="#000000" stroke="none">
<path d="M3079 6484 c-232 -134 -423 -244 -425 -244 -1 0 -31 -17 -65 -38 -35
-22 -84 -50 -109 -64 -25 -14 -191 -110 -370 -213 -179 -104 -437 -254 -575
-333 -137 -80 -261 -151 -275 -158 -14 -8 -144 -83 -290 -167 l-265 -154 0
-1599 c-1 -879 1 -1606 3 -1614 3 -15 16 -24 112 -78 25 -14 59 -33 75 -43 17
-10 44 -26 60 -35 17 -9 334 -192 705 -407 371 -214 700 -403 730 -420 30 -16
62 -36 71 -43 8 -8 18 -14 22 -14 3 0 70 -38 149 -84 79 -46 161 -94 183 -106
22 -12 155 -89 295 -170 140 -81 273 -158 295 -170 22 -12 45 -26 50 -30 36
-27 54 -21 235 85 100 58 184 105 186 105 3 0 17 8 32 19 26 18 588 342 687
396 28 15 57 34 66 41 8 8 18 14 22 14 3 0 86 46 184 103 98 57 329 191 513
297 184 106 387 223 450 260 63 37 160 93 215 124 55 32 107 61 115 67 8 5 42
24 75 43 l60 34 0 1611 c0 1056 -4 1613 -10 1619 -9 8 -344 202 -465 270 -25
14 -97 55 -160 92 -63 37 -349 202 -635 367 -286 165 -650 376 -810 468 -159
92 -308 178 -330 190 -22 13 -117 68 -212 123 l-171 100 -423 -244z"/>
</g>
</svg>
